<svg baseProfile="full" height="340.000" version="1.1" viewBox="0 0 320.000 340.000" width="320.000" xmlns="http://www.w3.org/2000/svg" xmlns:ev="http://www.w3.org/2001/xml-events" xmlns:xlink="http://www.w3.org/1999/xlink"><defs /><text class="block-title" fill="#333333" font-family="sans-serif" font-size="12" x="10.000" y="16.000">Block B - make 49</text><rect class="cell" fill="#9db8d9" height="60.000" stroke="#666666" stroke-width="0.5" width="60.000" x="10.000" y="24.000" /><rect class="cell" fill="#f2e8d5" height="60.000" stroke="#666666" stroke-width="0.5" width="60.000" x="70.000" y="24.000" /><rect class="cell" fill="#f2e8d5" height="60.000" stroke="#666666" stroke-width="0.5" width="60.000" x="130.000" y="24.000" /><rect class="cell" fill="#f2e8d5" height="60.000" stroke="#666666" stroke-width="0.5" width="60.000" x="190.000" y="24.000" /><rect class="cell" fill="#9db8d9" height="60.000" stroke="#666666" stroke-width="0.5" width="60.000" x="250.000" y="24.000" /><rect class="cell" fill="#f2e8d5" height="60.000" stroke="#666666" stroke-width="0.5" width="60.000" x="10.000" y="84.000" /><rect class="cell" fill="#f2e8d5" height="60.000" stroke="#666666" stroke-width="0.5" width="60.000" x="70.000" y="84.000" /><rect class="cell" fill="#f2e8d5" height="60.000" stroke="#666666" stroke-width="0.5" width="60.000" x="130.000" y="84.000" /><rect class="cell" fill="#f2e8d5" height="60.000" stroke="#666666" stroke-width="0.5" width="60.000" x="190.000" y="84.000" /><rect class="cell" fill="#f2e8d5" height="60.000" stroke="#666666" stroke-width="0.5" width="60.000" x="250.000" y="84.000" /><rect class="cell" fill="#f2e8d5" height="60.000" stroke="#666666" stroke-width="0.5" width="60.000" x="10.000" y="144.000" /><rect class="cell" fill="#f2e8d5" height="60.000" stroke="#666666" stroke-width="0.5" width="60.000" x="70.000" y="144.000" /><rect class="cell" fill="#f2e8d5" height="60.000" stroke="#666666" stroke-width="0.5" width="60.000" x="130.000" y="144.000" /><rect class="cell" fill="#f2e8d5" height="60.000" stroke="#666666" stroke-width="0.5" width="60.000" x="190.000" y="144.000" /><rect class="cell" fill="#f2e8d5" height="60.000" stroke="#666666" stroke-width="0.5" width="60.000" x="250.000" y="144.000" /><rect class="cell" fill="#f2e8d5" height="60.000" stroke="#666666" stroke-width="0.5" width="60.000" x="10.000" y="204.000" /><rect class="cell" fill="#f2e8d5" height="60.000" stroke="#666666" stroke-width="0.5" width="60.000" x="70.000" y="204.000" /><rect class="cell" fill="#f2e8d5" height="60.000" stroke="#666666" stroke-width="0.5" width="60.000" x="130.000" y="204.000" /><rect class="cell" fill="#f2e8d5" height="60.000" stroke="#666666" stroke-width="0.5" width="60.000" x="190.000" y="204.000" /><rect class="cell" fill="#f2e8d5" height="60.000" stroke="#666666" stroke-width="0.5" width="60.000" x="250.000" y="204.000" /><rect class="cell" fill="#9db8d9" height="60.000" stroke="#666666" stroke-width="0.5" width="60.000" x="10.000" y="264.000" /><rect class="cell" fill="#f2e8d5" height="60.000" stroke="#666666" stroke-width="0.5" width="60.000" x="70.000" y="264.000" /><rect class="cell" fill="#f2e8d5" height="60.000" stroke="#666666" stroke-width="0.5" width="60.000" x="130.000" y="264.000" /><rect class="cell" fill="#f2e8d5" height="60.000" stroke="#666666" stroke-width="0.5" width="60.000" x="190.000" y="264.000" /><rect class="cell" fill="#9db8d9" height="60.000" stroke="#666666" stroke-width="0.5" width="60.000" x="250.000" y="264.000" /></svg>