<svg baseProfile="full" height="650.000" version="1.1" viewBox="0 0 440.000 650.000" width="440.000" xmlns="http://www.w3.org/2000/svg" xmlns:ev="http://www.w3.org/2001/xml-events" xmlns:xlink="http://www.w3.org/1999/xlink"><defs /><text class="strip-set-title" fill="#333333" font-family="sans-serif" font-size="11" x="10.000" y="22.000">SS1: make 5, crosscut 100 segments at 2"</text><rect class="strip" fill="#9db8d9" height="20.000" stroke="#666666" stroke-width="0.5" width="420.000" x="10.000" y="28.000" /><rect class="strip" fill="#9db8d9" height="20.000" stroke="#666666" stroke-width="0.5" width="420.000" x="10.000" y="48.000" /><rect class="strip" fill="#f2e8d5" height="20.000" stroke="#666666" stroke-width="0.5" width="420.000" x="10.000" y="68.000" /><rect class="strip" fill="#9db8d9" height="20.000" stroke="#666666" stroke-width="0.5" width="420.000" x="10.000" y="88.000" /><rect class="strip" fill="#9db8d9" height="20.000" stroke="#666666" stroke-width="0.5" width="420.000" x="10.000" y="108.000" /><line class="crosscut" stroke="#333333" stroke-dasharray="3,3" stroke-width="0.5" x1="30.000" x2="30.000" y1="28.000" y2="110.000" /><line class="crosscut" stroke="#333333" stroke-dasharray="3,3" stroke-width="0.5" x1="50.000" x2="50.000" y1="28.000" y2="110.000" /><line class="crosscut" stroke="#333333" stroke-dasharray="3,3" stroke-width="0.5" x1="70.000" x2="70.000" y1="28.000" y2="110.000" /><line class="crosscut" stroke="#333333" stroke-dasharray="3,3" stroke-width="0.5" x1="90.000" x2="90.000" y1="28.000" y2="110.000" /><line class="crosscut" stroke="#333333" stroke-dasharray="3,3" stroke-width="0.5" x1="110.000" x2="110.000" y1="28.000" y2="110.000" /><line class="crosscut" stroke="#333333" stroke-dasharray="3,3" stroke-width="0.5" x1="130.000" x2="130.000" y1="28.000" y2="110.000" /><line class="crosscut" stroke="#333333" stroke-dasharray="3,3" stroke-width="0.5" x1="150.000" x2="150.000" y1="28.000" y2="110.000" /><line class="crosscut" stroke="#333333" stroke-dasharray="3,3" stroke-width="0.5" x1="170.000" x2="170.000" y1="28.000" y2="110.000" /><line class="crosscut" stroke="#333333" stroke-dasharray="3,3" stroke-width="0.5" x1="190.000" x2="190.000" y1="28.000" y2="110.000" /><line class="crosscut" stroke="#333333" stroke-dasharray="3,3" stroke-width="0.5" x1="210.000" x2="210.000" y1="28.000" y2="110.000" /><line class="crosscut" stroke="#333333" stroke-dasharray="3,3" stroke-width="0.5" x1="230.000" x2="230.000" y1="28.000" y2="110.000" /><line class="crosscut" stroke="#333333" stroke-dasharray="3,3" stroke-width="0.5" x1="250.000" x2="250.000" y1="28.000" y2="110.000" /><line class="crosscut" stroke="#333333" stroke-dasharray="3,3" stroke-width="0.5" x1="270.000" x2="270.000" y1="28.000" y2="110.000" /><line class="crosscut" stroke="#333333" stroke-dasharray="3,3" stroke-width="0.5" x1="290.000" x2="290.000" y1="28.000" y2="110.000" /><line class="crosscut" stroke="#333333" stroke-dasharray="3,3" stroke-width="0.5" x1="310.000" x2="310.000" y1="28.000" y2="110.000" /><line class="crosscut" stroke="#333333" stroke-dasharray="3,3" stroke-width="0.5" x1="330.000" x2="330.000" y1="28.000" y2="110.000" /><line class="crosscut" stroke="#333333" stroke-dasharray="3,3" stroke-width="0.5" x1="350.000" x2="350.000" y1="28.000" y2="110.000" /><line class="crosscut" stroke="#333333" stroke-dasharray="3,3" stroke-width="0.5" x1="370.000" x2="370.000" y1="28.000" y2="110.000" /><line class="crosscut" stroke="#333333" stroke-dasharray="3,3" stroke-width="0.5" x1="390.000" x2="390.000" y1="28.000" y2="110.000" /><line class="crosscut" stroke="#333333" stroke-dasharray="3,3" stroke-width="0.5" x1="410.000" x2="410.000" y1="28.000" y2="110.000" /><line class="crosscut" stroke="#333333" stroke-dasharray="3,3" stroke-width="0.5" x1="430.000" x2="430.000" y1="28.000" y2="110.000" /><text class="strip-set-title" fill="#333333" font-family="sans-serif" font-size="11" x="10.000" y="150.000">SS2: make 5, crosscut 100 segments at 2"</text><rect class="strip" fill="#9db8d9" height="20.000" stroke="#666666" stroke-width="0.5" width="420.000" x="10.000" y="156.000" /><rect class="strip" fill="#9db8d9" height="20.000" stroke="#666666" stroke-width="0.5" width="420.000" x="10.000" y="176.000" /><rect class="strip" fill="#9db8d9" height="20.000" stroke="#666666" stroke-width="0.5" width="420.000" x="10.000" y="196.000" /><rect class="strip" fill="#9db8d9" height="20.000" stroke="#666666" stroke-width="0.5" width="420.000" x="10.000" y="216.000" /><rect class="strip" fill="#9db8d9" height="20.000" stroke="#666666" stroke-width="0.5" width="420.000" x="10.000" y="236.000" /><line class="crosscut" stroke="#333333" stroke-dasharray="3,3" stroke-width="0.5" x1="30.000" x2="30.000" y1="156.000" y2="238.000" /><line class="crosscut" stroke="#333333" stroke-dasharray="3,3" stroke-width="0.5" x1="50.000" x2="50.000" y1="156.000" y2="238.000" /><line class="crosscut" stroke="#333333" stroke-dasharray="3,3" stroke-width="0.5" x1="70.000" x2="70.000" y1="156.000" y2="238.000" /><line class="crosscut" stroke="#333333" stroke-dasharray="3,3" stroke-width="0.5" x1="90.000" x2="90.000" y1="156.000" y2="238.000" /><line class="crosscut" stroke="#333333" stroke-dasharray="3,3" stroke-width="0.5" x1="110.000" x2="110.000" y1="156.000" y2="238.000" /><line class="crosscut" stroke="#333333" stroke-dasharray="3,3" stroke-width="0.5" x1="130.000" x2="130.000" y1="156.000" y2="238.000" /><line class="crosscut" stroke="#333333" stroke-dasharray="3,3" stroke-width="0.5" x1="150.000" x2="150.000" y1="156.000" y2="238.000" /><line class="crosscut" stroke="#333333" stroke-dasharray="3,3" stroke-width="0.5" x1="170.000" x2="170.000" y1="156.000" y2="238.000" /><line class="crosscut" stroke="#333333" stroke-dasharray="3,3" stroke-width="0.5" x1="190.000" x2="190.000" y1="156.000" y2="238.000" /><line class="crosscut" stroke="#333333" stroke-dasharray="3,3" stroke-width="0.5" x1="210.000" x2="210.000" y1="156.000" y2="238.000" /><line class="crosscut" stroke="#333333" stroke-dasharray="3,3" stroke-width="0.5" x1="230.000" x2="230.000" y1="156.000" y2="238.000" /><line class="crosscut" stroke="#333333" stroke-dasharray="3,3" stroke-width="0.5" x1="250.000" x2="250.000" y1="156.000" y2="238.000" /><line class="crosscut" stroke="#333333" stroke-dasharray="3,3" stroke-width="0.5" x1="270.000" x2="270.000" y1="156.000" y2="238.000" /><line class="crosscut" stroke="#333333" stroke-dasharray="3,3" stroke-width="0.5" x1="290.000" x2="290.000" y1="156.000" y2="238.000" /><line class="crosscut" stroke="#333333" stroke-dasharray="3,3" stroke-width="0.5" x1="310.000" x2="310.000" y1="156.000" y2="238.000" /><line class="crosscut" stroke="#333333" stroke-dasharray="3,3" stroke-width="0.5" x1="330.000" x2="330.000" y1="156.000" y2="238.000" /><line class="crosscut" stroke="#333333" stroke-dasharray="3,3" stroke-width="0.5" x1="350.000" x2="350.000" y1="156.000" y2="238.000" /><line class="crosscut" stroke="#333333" stroke-dasharray="3,3" stroke-width="0.5" x1="370.000" x2="370.000" y1="156.000" y2="238.000" /><line class="crosscut" stroke="#333333" stroke-dasharray="3,3" stroke-width="0.5" x1="390.000" x2="390.000" y1="156.000" y2="238.000" /><line class="crosscut" stroke="#333333" stroke-dasharray="3,3" stroke-width="0.5" x1="410.000" x2="410.000" y1="156.000" y2="238.000" /><line class="crosscut" stroke="#333333" stroke-dasharray="3,3" stroke-width="0.5" x1="430.000" x2="430.000" y1="156.000" y2="238.000" /><text class="strip-set-title" fill="#333333" font-family="sans-serif" font-size="11" x="10.000" y="278.000">SS3: make 3, crosscut 50 segments at 2"</text><rect class="strip" fill="#f2e8d5" height="20.000" stroke="#666666" stroke-width="0.5" width="420.000" x="10.000" y="284.000" /><rect class="strip" fill="#9db8d9" height="20.000" stroke="#666666" stroke-width="0.5" width="420.000" x="10.000" y="304.000" /><rect class="strip" fill="#9db8d9" height="20.000" stroke="#666666" stroke-width="0.5" width="420.000" x="10.000" y="324.000" /><rect class="strip" fill="#9db8d9" height="20.000" stroke="#666666" stroke-width="0.5" width="420.000" x="10.000" y="344.000" /><rect class="strip" fill="#f2e8d5" height="20.000" stroke="#666666" stroke-width="0.5" width="420.000" x="10.000" y="364.000" /><line class="crosscut" stroke="#333333" stroke-dasharray="3,3" stroke-width="0.5" x1="30.000" x2="30.000" y1="284.000" y2="366.000" /><line class="crosscut" stroke="#333333" stroke-dasharray="3,3" stroke-width="0.5" x1="50.000" x2="50.000" y1="284.000" y2="366.000" /><line class="crosscut" stroke="#333333" stroke-dasharray="3,3" stroke-width="0.5" x1="70.000" x2="70.000" y1="284.000" y2="366.000" /><line class="crosscut" stroke="#333333" stroke-dasharray="3,3" stroke-width="0.5" x1="90.000" x2="90.000" y1="284.000" y2="366.000" /><line class="crosscut" stroke="#333333" stroke-dasharray="3,3" stroke-width="0.5" x1="110.000" x2="110.000" y1="284.000" y2="366.000" /><line class="crosscut" stroke="#333333" stroke-dasharray="3,3" stroke-width="0.5" x1="130.000" x2="130.000" y1="284.000" y2="366.000" /><line class="crosscut" stroke="#333333" stroke-dasharray="3,3" stroke-width="0.5" x1="150.000" x2="150.000" y1="284.000" y2="366.000" /><line class="crosscut" stroke="#333333" stroke-dasharray="3,3" stroke-width="0.5" x1="170.000" x2="170.000" y1="284.000" y2="366.000" /><line class="crosscut" stroke="#333333" stroke-dasharray="3,3" stroke-width="0.5" x1="190.000" x2="190.000" y1="284.000" y2="366.000" /><line class="crosscut" stroke="#333333" stroke-dasharray="3,3" stroke-width="0.5" x1="210.000" x2="210.000" y1="284.000" y2="366.000" /><line class="crosscut" stroke="#333333" stroke-dasharray="3,3" stroke-width="0.5" x1="230.000" x2="230.000" y1="284.000" y2="366.000" /><line class="crosscut" stroke="#333333" stroke-dasharray="3,3" stroke-width="0.5" x1="250.000" x2="250.000" y1="284.000" y2="366.000" /><line class="crosscut" stroke="#333333" stroke-dasharray="3,3" stroke-width="0.5" x1="270.000" x2="270.000" y1="284.000" y2="366.000" /><line class="crosscut" stroke="#333333" stroke-dasharray="3,3" stroke-width="0.5" x1="290.000" x2="290.000" y1="284.000" y2="366.000" /><line class="crosscut" stroke="#333333" stroke-dasharray="3,3" stroke-width="0.5" x1="310.000" x2="310.000" y1="284.000" y2="366.000" /><line class="crosscut" stroke="#333333" stroke-dasharray="3,3" stroke-width="0.5" x1="330.000" x2="330.000" y1="284.000" y2="366.000" /><line class="crosscut" stroke="#333333" stroke-dasharray="3,3" stroke-width="0.5" x1="350.000" x2="350.000" y1="284.000" y2="366.000" /><line class="crosscut" stroke="#333333" stroke-dasharray="3,3" stroke-width="0.5" x1="370.000" x2="370.000" y1="284.000" y2="366.000" /><line class="crosscut" stroke="#333333" stroke-dasharray="3,3" stroke-width="0.5" x1="390.000" x2="390.000" y1="284.000" y2="366.000" /><line class="crosscut" stroke="#333333" stroke-dasharray="3,3" stroke-width="0.5" x1="410.000" x2="410.000" y1="284.000" y2="366.000" /><line class="crosscut" stroke="#333333" stroke-dasharray="3,3" stroke-width="0.5" x1="430.000" x2="430.000" y1="284.000" y2="366.000" /><text class="strip-set-title" fill="#333333" font-family="sans-serif" font-size="11" x="10.000" y="406.000">SS4: make 5, crosscut 98 segments at 2"</text><rect class="strip" fill="#9db8d9" height="20.000" stroke="#666666" stroke-width="0.5" width="420.000" x="10.000" y="412.000" /><rect class="strip" fill="#f2e8d5" height="20.000" stroke="#666666" stroke-width="0.5" width="420.000" x="10.000" y="432.000" /><rect class="strip" fill="#f2e8d5" height="20.000" stroke="#666666" stroke-width="0.5" width="420.000" x="10.000" y="452.000" /><rect class="strip" fill="#f2e8d5" height="20.000" stroke="#666666" stroke-width="0.5" width="420.000" x="10.000" y="472.000" /><rect class="strip" fill="#9db8d9" height="20.000" stroke="#666666" stroke-width="0.5" width="420.000" x="10.000" y="492.000" /><line class="crosscut" stroke="#333333" stroke-dasharray="3,3" stroke-width="0.5" x1="30.000" x2="30.000" y1="412.000" y2="494.000" /><line class="crosscut" stroke="#333333" stroke-dasharray="3,3" stroke-width="0.5" x1="50.000" x2="50.000" y1="412.000" y2="494.000" /><line class="crosscut" stroke="#333333" stroke-dasharray="3,3" stroke-width="0.5" x1="70.000" x2="70.000" y1="412.000" y2="494.000" /><line class="crosscut" stroke="#333333" stroke-dasharray="3,3" stroke-width="0.5" x1="90.000" x2="90.000" y1="412.000" y2="494.000" /><line class="crosscut" stroke="#333333" stroke-dasharray="3,3" stroke-width="0.5" x1="110.000" x2="110.000" y1="412.000" y2="494.000" /><line class="crosscut" stroke="#333333" stroke-dasharray="3,3" stroke-width="0.5" x1="130.000" x2="130.000" y1="412.000" y2="494.000" /><line class="crosscut" stroke="#333333" stroke-dasharray="3,3" stroke-width="0.5" x1="150.000" x2="150.000" y1="412.000" y2="494.000" /><line class="crosscut" stroke="#333333" stroke-dasharray="3,3" stroke-width="0.5" x1="170.000" x2="170.000" y1="412.000" y2="494.000" /><line class="crosscut" stroke="#333333" stroke-dasharray="3,3" stroke-width="0.5" x1="190.000" x2="190.000" y1="412.000" y2="494.000" /><line class="crosscut" stroke="#333333" stroke-dasharray="3,3" stroke-width="0.5" x1="210.000" x2="210.000" y1="412.000" y2="494.000" /><line class="crosscut" stroke="#333333" stroke-dasharray="3,3" stroke-width="0.5" x1="230.000" x2="230.000" y1="412.000" y2="494.000" /><line class="crosscut" stroke="#333333" stroke-dasharray="3,3" stroke-width="0.5" x1="250.000" x2="250.000" y1="412.000" y2="494.000" /><line class="crosscut" stroke="#333333" stroke-dasharray="3,3" stroke-width="0.5" x1="270.000" x2="270.000" y1="412.000" y2="494.000" /><line class="crosscut" stroke="#333333" stroke-dasharray="3,3" stroke-width="0.5" x1="290.000" x2="290.000" y1="412.000" y2="494.000" /><line class="crosscut" stroke="#333333" stroke-dasharray="3,3" stroke-width="0.5" x1="310.000" x2="310.000" y1="412.000" y2="494.000" /><line class="crosscut" stroke="#333333" stroke-dasharray="3,3" stroke-width="0.5" x1="330.000" x2="330.000" y1="412.000" y2="494.000" /><line class="crosscut" stroke="#333333" stroke-dasharray="3,3" stroke-width="0.5" x1="350.000" x2="350.000" y1="412.000" y2="494.000" /><line class="crosscut" stroke="#333333" stroke-dasharray="3,3" stroke-width="0.5" x1="370.000" x2="370.000" y1="412.000" y2="494.000" /><line class="crosscut" stroke="#333333" stroke-dasharray="3,3" stroke-width="0.5" x1="390.000" x2="390.000" y1="412.000" y2="494.000" /><line class="crosscut" stroke="#333333" stroke-dasharray="3,3" stroke-width="0.5" x1="410.000" x2="410.000" y1="412.000" y2="494.000" /><line class="crosscut" stroke="#333333" stroke-dasharray="3,3" stroke-width="0.5" x1="430.000" x2="430.000" y1="412.000" y2="494.000" /><text class="strip-set-title" fill="#333333" font-family="sans-serif" font-size="11" x="10.000" y="534.000">SS5: make 7, crosscut 147 segments at 2"</text><rect class="strip" fill="#f2e8d5" height="20.000" stroke="#666666" stroke-width="0.5" width="420.000" x="10.000" y="540.000" /><rect class="strip" fill="#f2e8d5" height="20.000" stroke="#666666" stroke-width="0.5" width="420.000" x="10.000" y="560.000" /><rect class="strip" fill="#f2e8d5" height="20.000" stroke="#666666" stroke-width="0.5" width="420.000" x="10.000" y="580.000" /><rect class="strip" fill="#f2e8d5" height="20.000" stroke="#666666" stroke-width="0.5" width="420.000" x="10.000" y="600.000" /><rect class="strip" fill="#f2e8d5" height="20.000" stroke="#666666" stroke-width="0.5" width="420.000" x="10.000" y="620.000" /><line class="crosscut" stroke="#333333" stroke-dasharray="3,3" stroke-width="0.5" x1="30.000" x2="30.000" y1="540.000" y2="622.000" /><line class="crosscut" stroke="#333333" stroke-dasharray="3,3" stroke-width="0.5" x1="50.000" x2="50.000" y1="540.000" y2="622.000" /><line class="crosscut" stroke="#333333" stroke-dasharray="3,3" stroke-width="0.5" x1="70.000" x2="70.000" y1="540.000" y2="622.000" /><line class="crosscut" stroke="#333333" stroke-dasharray="3,3" stroke-width="0.5" x1="90.000" x2="90.000" y1="540.000" y2="622.000" /><line class="crosscut" stroke="#333333" stroke-dasharray="3,3" stroke-width="0.5" x1="110.000" x2="110.000" y1="540.000" y2="622.000" /><line class="crosscut" stroke="#333333" stroke-dasharray="3,3" stroke-width="0.5" x1="130.000" x2="130.000" y1="540.000" y2="622.000" /><line class="crosscut" stroke="#333333" stroke-dasharray="3,3" stroke-width="0.5" x1="150.000" x2="150.000" y1="540.000" y2="622.000" /><line class="crosscut" stroke="#333333" stroke-dasharray="3,3" stroke-width="0.5" x1="170.000" x2="170.000" y1="540.000" y2="622.000" /><line class="crosscut" stroke="#333333" stroke-dasharray="3,3" stroke-width="0.5" x1="190.000" x2="190.000" y1="540.000" y2="622.000" /><line class="crosscut" stroke="#333333" stroke-dasharray="3,3" stroke-width="0.5" x1="210.000" x2="210.000" y1="540.000" y2="622.000" /><line class="crosscut" stroke="#333333" stroke-dasharray="3,3" stroke-width="0.5" x1="230.000" x2="230.000" y1="540.000" y2="622.000" /><line class="crosscut" stroke="#333333" stroke-dasharray="3,3" stroke-width="0.5" x1="250.000" x2="250.000" y1="540.000" y2="622.000" /><line class="crosscut" stroke="#333333" stroke-dasharray="3,3" stroke-width="0.5" x1="270.000" x2="270.000" y1="540.000" y2="622.000" /><line class="crosscut" stroke="#333333" stroke-dasharray="3,3" stroke-width="0.5" x1="290.000" x2="290.000" y1="540.000" y2="622.000" /><line class="crosscut" stroke="#333333" stroke-dasharray="3,3" stroke-width="0.5" x1="310.000" x2="310.000" y1="540.000" y2="622.000" /><line class="crosscut" stroke="#333333" stroke-dasharray="3,3" stroke-width="0.5" x1="330.000" x2="330.000" y1="540.000" y2="622.000" /><line class="crosscut" stroke="#333333" stroke-dasharray="3,3" stroke-width="0.5" x1="350.000" x2="350.000" y1="540.000" y2="622.000" /><line class="crosscut" stroke="#333333" stroke-dasharray="3,3" stroke-width="0.5" x1="370.000" x2="370.000" y1="540.000" y2="622.000" /><line class="crosscut" stroke="#333333" stroke-dasharray="3,3" stroke-width="0.5" x1="390.000" x2="390.000" y1="540.000" y2="622.000" /><line class="crosscut" stroke="#333333" stroke-dasharray="3,3" stroke-width="0.5" x1="410.000" x2="410.000" y1="540.000" y2="622.000" /><line class="crosscut" stroke="#333333" stroke-dasharray="3,3" stroke-width="0.5" x1="430.000" x2="430.000" y1="540.000" y2="622.000" /></svg>